<?xml version="1.0" encoding="UTF-8"?>
<svg id="Layer_1" xmlns="http://www.w3.org/2000/svg" version="1.1" viewBox="0 0 32 32">
  <!-- Generator: Adobe Illustrator 29.8.1, SVG Export Plug-In . SVG Version: 2.1.1 Build 2)  -->
  <defs>
    <style>
      .st0 {
        fill: #eb4d4d;
      }

      .st1 {
        fill: #fff;
      }

      .st2 {
        display: none;
      }
    </style>
  </defs>
  <rect class="st2" width="32" height="32"/>
  <g>
    <path class="st1" d="M28.5,29.5H3.5c-1.4,0-2.5-1.1-2.5-2.5V9.3c0-1.4,1.1-2.5,2.5-2.5h25c1.4,0,2.5,1.1,2.5,2.5v17.8c0,1.4-1.1,2.5-2.5,2.5ZM3.5,7.8c-.8,0-1.5.7-1.5,1.5v17.8c0,.8.7,1.5,1.5,1.5h25c.8,0,1.5-.7,1.5-1.5V9.3c0-.8-.7-1.5-1.5-1.5H3.5Z"/>
    <path class="st1" d="M22.4,7.8h-12.8c-.3,0-.5-.2-.5-.5v-.7c0-1,.8-1.9,1.9-1.9h10.2c1,0,1.9.8,1.9,1.9v.7c0,.3-.2.5-.5.5ZM10.1,6.8h11.8v-.2c0-.4-.4-.8-.8-.8h-10.2c-.4,0-.8.4-.8.8v.2Z"/>
    <path class="st1" d="M24.8,7.8H7.2c-.3,0-.5-.2-.5-.5v-1c0-2.1,1.7-3.8,3.8-3.8h11.2c2.1,0,3.8,1.7,3.8,3.8v1c0,.3-.2.5-.5.5ZM7.7,6.8h16.6v-.5c0-1.5-1.2-2.7-2.7-2.7h-11.2c-1.5,0-2.7,1.2-2.7,2.7v.5Z"/>
    <path class="st1" d="M1.5,11.7c-.3,0-.5-.2-.5-.5v-1.9c0-1.4,1.1-2.5,2.5-2.5h1.9c.3,0,.5.2.5.5,0,2.5-2,4.4-4.4,4.4ZM3.5,7.8c-.8,0-1.5.7-1.5,1.5v1.4c1.5-.2,2.6-1.4,2.8-2.8h-1.4Z"/>
    <path class="st1" d="M30.5,11.7c-2.5,0-4.4-2-4.4-4.4s.2-.5.5-.5h1.9c1.4,0,2.5,1.1,2.5,2.5v1.9c0,.3-.2.5-.5.5ZM27.1,7.8c.2,1.5,1.4,2.6,2.8,2.8v-1.4c0-.8-.7-1.5-1.5-1.5h-1.4Z"/>
    <path class="st1" d="M5.4,29.5h-1.9c-1.4,0-2.5-1.1-2.5-2.5v-1.9c0-.3.2-.5.5-.5,2.5,0,4.4,2,4.4,4.4s-.2.5-.5.5ZM2,25.7v1.4c0,.8.7,1.5,1.5,1.5h1.4c-.2-1.5-1.4-2.6-2.8-2.8Z"/>
    <path class="st1" d="M28.5,29.5h-1.9c-.3,0-.5-.2-.5-.5,0-2.5,2-4.4,4.4-4.4s.5.2.5.5v1.9c0,1.4-1.1,2.5-2.5,2.5ZM27.1,28.5h1.4c.8,0,1.5-.7,1.5-1.5v-1.4c-1.5.2-2.6,1.4-2.8,2.8Z"/>
    <path class="st1" d="M6.8,18.8H1.5c-.3,0-.5-.2-.5-.5s.2-.5.5-.5h5.3c.3,0,.5.2.5.5s-.2.5-.5.5Z"/>
    <path class="st1" d="M20.8,18.8h-9.6c-.3,0-.5-.2-.5-.5s.2-.5.5-.5h9.6c.3,0,.5.2.5.5s-.2.5-.5.5Z"/>
    <path class="st1" d="M30.5,18.8h-5.7c-.3,0-.5-.2-.5-.5s.2-.5.5-.5h5.7c.3,0,.5.2.5.5s-.2.5-.5.5Z"/>
  </g>
  <path class="st0" d="M9.8,22.4h-1.6c-.9,0-1.6-.7-1.6-1.6v-4.4c0-.9.7-1.6,1.6-1.6h1.6c.9,0,1.6.7,1.6,1.6v4.4c0,.9-.7,1.6-1.6,1.6ZM8.2,15.9c-.3,0-.5.2-.5.5v4.4c0,.3.2.5.5.5h1.6c.3,0,.5-.2.5-.5v-4.4c0-.3-.2-.5-.5-.5h-1.6Z"/>
  <path class="st0" d="M23.6,22.4h-1.6c-.9,0-1.6-.7-1.6-1.6v-4.4c0-.9.7-1.6,1.6-1.6h1.6c.9,0,1.6.7,1.6,1.6v4.4c0,.9-.7,1.6-1.6,1.6ZM22,15.9c-.3,0-.5.2-.5.5v4.4c0,.3.2.5.5.5h1.6c.3,0,.5-.2.5-.5v-4.4c0-.3-.2-.5-.5-.5h-1.6Z"/>
</svg>