<?xml version="1.0" encoding="UTF-8"?>
<svg id="Layer_1" xmlns="http://www.w3.org/2000/svg" version="1.1" viewBox="0 0 32 32">
  <!-- Generator: Adobe Illustrator 29.8.1, SVG Export Plug-In . SVG Version: 2.1.1 Build 2)  -->
  <defs>
    <style>
      .st0 {
        fill: #eb4d4d;
      }

      .st1 {
        fill: #fff;
      }
    </style>
  </defs>
  <g>
    <g>
      <path class="st1" d="M17.1,9.6h-2.4c-.3,0-.5-.2-.5-.5v-4.9c0-.3.2-.5.5-.5h2.4c.3,0,.5.2.5.5v4.9c0,.3-.2.5-.5.5ZM15.2,8.6h1.3v-3.8h-1.3v3.8Z"/>
      <path class="st1" d="M16.6,11.4c-.3,0-.5-.2-.5-.5v-1.2h-.2v1.2c0,.3-.2.5-.5.5s-.5-.2-.5-.5v-1.8c0-.3.2-.5.5-.5h1.3c.3,0,.5.2.5.5v1.8c0,.3-.2.5-.5.5Z"/>
      <g>
        <path class="st1" d="M20.6,29.2c0,0-.2,0-.2,0-.1,0-.2-.2-.3-.3l-4.7-12.4c-.1-.3,0-.6.3-.7.3-.1.6,0,.7.3l4.5,11.9.6-.2-4.5-11.9c-.1-.3,0-.6.3-.7.3-.1.6,0,.7.3l4.7,12.4c.1.3,0,.6-.3.7l-1.6.6c0,0-.1,0-.2,0Z"/>
        <path class="st1" d="M22.5,31.7c-.2,0-.4-.1-.5-.3l-1.1-2.8c-.1-.3,0-.6.3-.7.3-.1.6,0,.7.3l1.1,2.8c.1.3,0,.6-.3.7,0,0-.1,0-.2,0Z"/>
      </g>
      <g>
        <path class="st1" d="M11.2,29.2c0,0-.1,0-.2,0l-1.6-.6c-.3-.1-.4-.4-.3-.7l4.7-12.4c.1-.3.4-.4.7-.3.3.1.4.4.3.7l-4.5,11.9.6.2,4.5-11.9c.1-.3.4-.4.7-.3.3.1.4.4.3.7l-4.7,12.4c0,.1-.2.2-.3.3,0,0-.1,0-.2,0Z"/>
        <path class="st1" d="M9.3,31.7c0,0-.1,0-.2,0-.3-.1-.4-.4-.3-.7l1.1-2.8c.1-.3.4-.4.7-.3.3.1.4.4.3.7l-1.1,2.8c0,.2-.3.3-.5.3Z"/>
      </g>
    </g>
    <path class="st1" d="M22.3,23c-.2,0-.3,0-.4-.2-.2-.2,0-.6.2-.7,3.1-2,4.9-5.5,4.9-9.1,0-6-4.9-11-11-11S4.9,6.8,4.9,12.8s1.8,7.1,4.9,9.1c.2.2.3.5.2.7-.2.2-.5.3-.7.2-3.4-2.2-5.4-6-5.4-10C3.9,6.2,9.3.8,15.9.8s12,5.4,12,12-2,7.8-5.4,10c0,0-.2,0-.3,0Z"/>
    <path class="st1" d="M11.3,23.9c0,0-.1,0-.2,0-.6-.3-1.3-.6-1.8-1-.2-.2-.3-.5-.2-.7.2-.2.5-.3.7-.2.5.4,1.1.7,1.7.9.3.1.4.4.3.7,0,.2-.3.3-.5.3Z"/>
    <path class="st1" d="M15.9,24.9c-1,0-2-.1-2.9-.4-.3,0-.5-.4-.4-.7,0-.3.4-.5.7-.4,1.8.4,3.7.4,5.5,0,.3,0,.6,0,.7.4,0,.3,0,.6-.4.7-1,.3-2,.4-3.1.4Z"/>
    <path class="st1" d="M20.6,23.9c-.2,0-.4-.1-.5-.3-.1-.3,0-.6.3-.7.5-.2,1.1-.5,1.6-.9.2-.2.6,0,.7.2.2.2,0,.6-.2.7-.5.4-1.1.7-1.7.9,0,0-.1,0-.2,0Z"/>
  </g>
  <path class="st0" d="M15.9,16.5c-1.6,0-3-1.3-3-3s1.3-3,3-3,3,1.3,3,3-1.3,3-3,3ZM15.9,11.6c-1,0-1.9.9-1.9,1.9s.9,1.9,1.9,1.9,1.9-.9,1.9-1.9-.9-1.9-1.9-1.9Z"/>
  <path class="st0" d="M15.9,14.8c-.7,0-1.3-.6-1.3-1.3s.6-1.3,1.3-1.3,1.3.6,1.3,1.3-.6,1.3-1.3,1.3ZM15.9,13.3c-.1,0-.3.1-.3.3s.1.3.3.3.3-.1.3-.3-.1-.3-.3-.3Z"/>
</svg>